<svg xmlns="http://www.w3.org/2000/svg" width="11.418" height="11.418" viewBox="0 0 11.418 11.418">
  <g id="패스_91" data-name="패스 91" transform="translate(1 1)" fill="none">
    <path d="M4.709,0A4.82,4.82,0,0,1,9.048,2.876a4.33,4.33,0,0,1,.37,1.833A4.882,4.882,0,0,1,8.077,8,4.525,4.525,0,0,1,4.709,9.418,4.709,4.709,0,0,1,4.709,0Z" stroke="none"/>
    <path d="M 4.709122657775879 2.86102294921875e-06 C 2.10834264755249 2.86102294921875e-06 2.86102294921875e-06 2.10834264755249 2.86102294921875e-06 4.709122657775879 C 2.86102294921875e-06 7.309902667999268 2.10834264755249 9.418242454528809 4.709122657775879 9.418242454528809 C 6.142152786254883 9.418242454528809 7.425682544708252 8.778142929077148 8.07700252532959 8.000513076782227 C 8.993202209472656 6.945332527160645 9.418242454528809 5.876862525939941 9.418242454528809 4.709122657775879 C 9.418242454528809 3.94708251953125 9.237242698669434 3.227312564849854 9.048182487487793 2.87612247467041 C 8.14045238494873 1.053842544555664 6.547852516174316 2.86102294921875e-06 4.709122657775879 2.86102294921875e-06 M 4.709122657775879 -0.9999971389770508 C 5.808682441711426 -0.9999971389770508 6.870612621307373 -0.6814975738525391 7.780092716217041 -0.07892704010009766 C 8.668300628662109 0.5095424652099609 9.413837432861328 1.372504234313965 9.93690013885498 2.417471885681152 C 10.22961044311523 2.97121524810791 10.41824245452881 3.867897987365723 10.41824245452881 4.709122657775879 C 10.41824245452881 6.133307456970215 9.901165008544922 7.422425270080566 8.837672233581543 8.649698257446289 C 7.933055877685547 9.724303245544434 6.313749313354492 10.41824245452881 4.709122657775879 10.41824245452881 C 1.561102867126465 10.41824245452881 -0.9999971389770508 7.857142448425293 -0.9999971389770508 4.709122657775879 C -0.9999971389770508 1.561102867126465 1.561102867126465 -0.9999971389770508 4.709122657775879 -0.9999971389770508 Z" stroke="none" fill="#1d73ff"/>
  </g>
</svg>
