<svg xmlns="http://www.w3.org/2000/svg" width="14" height="16.5" viewBox="0 0 14 16.5">
  <g id="Icon_awesome-trash-alt" data-name="Icon awesome-trash-alt" transform="translate(1 1)" fill="none">
    <path d="M.857,13.141A1.324,1.324,0,0,0,2.143,14.5H9.857a1.324,1.324,0,0,0,1.286-1.359V3.625H.857Zm7.286-7.25a.429.429,0,1,1,.857,0v6.344a.429.429,0,1,1-.857,0Zm-2.571,0a.429.429,0,1,1,.857,0v6.344a.429.429,0,1,1-.857,0ZM3,5.891a.429.429,0,1,1,.857,0v6.344a.429.429,0,1,1-.857,0ZM11.571.906H8.357L8.105.377A.64.64,0,0,0,7.529,0H4.468a.633.633,0,0,0-.573.377l-.252.53H.429A.441.441,0,0,0,0,1.359v.906a.441.441,0,0,0,.429.453H11.571A.441.441,0,0,0,12,2.266V1.359A.441.441,0,0,0,11.571.906Z" stroke="none"/>
    <path d="M 9.857139587402344 14.50040721893311 C 10.56721973419189 14.50040721893311 11.14286041259766 13.89177703857422 11.14286041259766 13.1409969329834 L 11.14286041259766 3.625096797943115 L 0.8571400046348572 3.625096797943115 L 0.8571400046348572 13.1409969329834 C 0.8571400046348572 13.89177703857422 1.432780027389526 14.50040721893311 2.142859935760498 14.50040721893311 L 9.857139587402344 14.50040721893311 M 8.571430206298828 5.437646865844727 C 8.808119773864746 5.437646865844727 9 5.64052677154541 9 5.890786647796631 L 9 12.23471641540527 C 9 12.48498630523682 8.808119773864746 12.68785667419434 8.571430206298828 12.68785667419434 C 8.33473014831543 12.68785667419434 8.142860412597656 12.48498630523682 8.142860412597656 12.23471641540527 L 8.142860412597656 5.890786647796631 C 8.142860412597656 5.64052677154541 8.33473014831543 5.437646865844727 8.571430206298828 5.437646865844727 M 6 5.437646865844727 C 6.236690044403076 5.437646865844727 6.428569793701172 5.64052677154541 6.428569793701172 5.890786647796631 L 6.428569793701172 12.23471641540527 C 6.428569793701172 12.48498630523682 6.236690044403076 12.68785667419434 6 12.68785667419434 C 5.763309955596924 12.68785667419434 5.571430206298828 12.48498630523682 5.571430206298828 12.23471641540527 L 5.571430206298828 5.890786647796631 C 5.571430206298828 5.64052677154541 5.763309955596924 5.437646865844727 6 5.437646865844727 M 3.428570032119751 5.437646865844727 C 3.665270090103149 5.437646865844727 3.857140064239502 5.64052677154541 3.857140064239502 5.890786647796631 L 3.857140064239502 12.23471641540527 C 3.857140064239502 12.48498630523682 3.665270090103149 12.68785667419434 3.428570032119751 12.68785667419434 C 3.191879987716675 12.68785667419434 3 12.48498630523682 3 12.23471641540527 L 3 5.890786647796631 C 3 5.64052677154541 3.191879987716675 5.437646865844727 3.428570032119751 5.437646865844727 M 11.57143020629883 2.718816757202148 C 11.80811977386475 2.718816757202148 12 2.515946626663208 12 2.265686750411987 L 12 1.359406709671021 C 12 1.10914671421051 11.80811977386475 0.9062667489051819 11.57143020629883 0.9062667489051819 L 8.357139587402344 0.9062667489051819 L 8.10536003112793 0.3766667544841766 C 7.99664306640625 0.1458718031644821 7.773764133453369 -3.411102397876675e-06 7.529935836791992 -3.411102397876675e-06 C 7.529772281646729 -3.411102397876675e-06 7.529623985290527 -3.38241579811438e-06 7.529459953308105 -3.254852344980463e-06 L 4.467860221862793 -3.254852344980463e-06 C 4.467042446136475 -6.578216471098131e-06 4.466220855712891 -8.215789421228692e-06 4.46540355682373 -8.215789421228692e-06 C 4.22280216217041 -8.215789421228692e-06 4.001280784606934 0.1460933685302734 3.89463996887207 0.3766667544841766 L 3.642859935760498 0.9062667489051819 L 0.4285700023174286 0.9062667489051819 C 0.191880002617836 0.9062667489051819 -8.881784197001252e-16 1.10914671421051 -8.881784197001252e-16 1.359406709671021 L -8.881784197001252e-16 2.265686750411987 C -8.881784197001252e-16 2.515946626663208 0.191880002617836 2.718816757202148 0.4285700023174286 2.718816757202148 L 11.57143020629883 2.718816757202148 M 9.857139587402344 15.50040721893311 L 2.142859935760498 15.50040721893311 C 0.8825100064277649 15.50040721893311 -0.1428599953651428 14.44197654724121 -0.1428599953651428 13.1409969329834 L -0.1428599953651428 3.625096797943115 L -0.1428599953651428 3.597474813461304 C -0.6469878554344177 3.372827291488647 -1 2.860420703887939 -1 2.265686750411987 L -1 1.359406709671021 C -1 0.5581467747688293 -0.3591499924659729 -0.09373325854539871 0.4285700023174286 -0.09373325854539871 L 3.011476278305054 -0.09373325854539871 C 3.289954900741577 -0.64609295129776 3.854633092880249 -1.000003218650818 4.465400218963623 -1.000003218650818 L 7.529459953308105 -1.000003218650818 C 8.140875816345215 -1.000003218650818 8.708024024963379 -0.6459082365036011 8.988363265991211 -0.09373325854539871 L 11.57143020629883 -0.09373325854539871 C 12.35914993286133 -0.09373325854539871 13 0.5581467747688293 13 1.359406709671021 L 13 2.265686750411987 C 13 2.860420703887939 12.64698791503906 3.372827291488647 12.14286041259766 3.597474813461304 L 12.14286041259766 3.625096797943115 L 12.14286041259766 13.1409969329834 C 12.14286041259766 14.44197654724121 11.1174898147583 15.50040721893311 9.857139587402344 15.50040721893311 Z" stroke="none" fill="#2e2e2e"/>
  </g>
</svg>
