<svg xmlns="http://www.w3.org/2000/svg" width="17" height="18" viewBox="0 0 17 18">
  <g id="패스_51" data-name="패스 51" transform="translate(-4.5 -4.5)" fill="none" stroke-linecap="square">
    <path d="M20.876,7.6l-2.3-2.433a2.084,2.084,0,0,0-1.51-.666h-1.24a.738.738,0,0,0-.708.759v3.75a.732.732,0,0,1-.708.75H8.75a.732.732,0,0,1-.708-.75V5.259A.741.741,0,0,0,7.333,4.5H5.917A1.464,1.464,0,0,0,4.5,6V21a1.464,1.464,0,0,0,1.417,1.5H20.083A1.464,1.464,0,0,0,21.5,21V9.188A2.319,2.319,0,0,0,20.876,7.6ZM15.922,20.255a.772.772,0,0,1-.788.75h-7.1a.772.772,0,0,1-.788-.75v-4.5A.772.772,0,0,1,8.033,15h7.1a.772.772,0,0,1,.788.75v4.5Z" stroke="none"/>
    <path d="M 5.916669845581055 5.5 C 5.69080924987793 5.5 5.5 5.728969573974609 5.5 6 L 5.5 21 C 5.5 21.27103042602539 5.69080924987793 21.5 5.916669845581055 21.5 L 6.777776718139648 21.5 C 6.448917388916016 21.18247032165527 6.244789123535156 20.74146461486816 6.244789123535156 20.25469017028809 L 6.244789123535156 15.75469017028809 C 6.244789123535156 14.78973960876465 7.046890258789063 14.00469017028809 8.032810211181641 14.00469017028809 L 15.13385009765625 14.00469017028809 C 16.11977005004883 14.00469017028809 16.92187118530273 14.78973960876465 16.92187118530273 15.75469017028809 L 16.92187881469727 20.25469017028809 C 16.92187881469727 20.74146461486816 16.71775245666504 21.18247032165527 16.38889312744141 21.5 L 20.08333015441895 21.5 C 20.30918884277344 21.5 20.5 21.27103042602539 20.5 21 L 20.5 9.1875 C 20.5 8.850330352783203 20.37198066711426 8.52140998840332 20.14876937866211 8.285060882568359 L 17.85111045837402 5.852249145507813 C 17.63969039916992 5.628389358520508 17.35443878173828 5.5 17.06848907470703 5.5 L 16.12057113647461 5.5 L 16.12057113647461 9.009370803833008 C 16.12057113647461 9.974330902099609 15.35422039031982 10.75938034057617 14.41224002838135 10.75938034057617 L 8.75 10.75938034057617 C 7.808019638061523 10.75938034057617 7.041669845581055 9.974330902099609 7.041669845581055 9.009370803833008 L 7.041669845581055 5.5 L 5.916669845581055 5.5 M 5.916669845581055 4.5 L 7.333330154418945 4.5 C 7.722919464111328 4.5 8.041669845581055 4.846870422363281 8.041669845581055 5.259380340576172 L 8.041669845581055 9.009370803833008 C 8.041669845581055 9.421869277954102 8.360420227050781 9.759380340576172 8.75 9.759380340576172 L 14.41224002838135 9.759380340576172 C 14.80181980133057 9.759380340576172 15.12057018280029 9.421869277954102 15.12057018280029 9.009370803833008 L 15.12057018280029 5.259380340576172 C 15.12057018280029 4.842189788818359 15.43933010101318 4.5 15.8289098739624 4.5 L 17.06848907470703 4.5 C 17.63516044616699 4.5 18.17968940734863 4.743749618530273 18.57812881469727 5.165630340576172 L 20.87578010559082 7.598440170288086 C 21.27421951293945 8.020309448242188 21.5 8.592189788818359 21.5 9.1875 L 21.5 21 C 21.5 21.82500076293945 20.86249923706055 22.5 20.08333015441895 22.5 L 5.916669845581055 22.5 C 5.137500762939453 22.5 4.5 21.82500076293945 4.5 21 L 4.5 6 C 4.5 5.174999237060547 5.137500762939453 4.5 5.916669845581055 4.5 Z M 15.13385963439941 21.00469017028809 C 15.56770992279053 21.00469017028809 15.92187976837158 20.66719055175781 15.92187976837158 20.25469017028809 L 15.92187023162842 20.25469017028809 L 15.92187023162842 15.75469017028809 C 15.92187023162842 15.34218978881836 15.56770992279053 15.00469017028809 15.13385009765625 15.00469017028809 L 8.032810211181641 15.00469017028809 C 7.598960876464844 15.00469017028809 7.244789123535156 15.34218978881836 7.244789123535156 15.75469017028809 L 7.244789123535156 20.25469017028809 C 7.244789123535156 20.66719055175781 7.598960876464844 21.00469017028809 8.032810211181641 21.00469017028809 L 15.13385963439941 21.00469017028809 Z" stroke="none" fill="#2e2e2e"/>
  </g>
</svg>
