<svg xmlns="http://www.w3.org/2000/svg" xmlns:xlink="http://www.w3.org/1999/xlink" width="364" height="364" viewBox="0 0 364 364">
  <defs>
    <linearGradient id="linear-gradient" x2="1" y2="1" gradientUnits="objectBoundingBox">
      <stop offset="0" stop-color="#578fff"/>
      <stop offset="1" stop-color="#505bff"/>
    </linearGradient>
  </defs>
  <g id="그룹_599" data-name="그룹 599" transform="translate(3312.263 -4311.315)">
    <circle id="타원_85" data-name="타원 85" cx="182" cy="182" r="182" transform="translate(-3312.263 4311.315)" fill="#f8f8f8"/>
    <g id="그룹_130" data-name="그룹 130" transform="translate(-3311.853 4311.315)">
      <path id="패스_49" data-name="패스 49" d="M181.659,0A181.467,181.467,0,0,1,282.6,30.671c33.958,22.461,60.11,56.839,72.941,98.459a181.234,181.234,0,0,1,7.781,52.949c0,42.134-14.279,80.926-38.932,112.651,20.124-135.154-42.467-159.614-70.173-159.614-35.18,0-82.926,85.192-133.412,109.26C60.45,273.148,0,237.69,0,182.08A182.433,182.433,0,0,1,25.841,88.426C51.227,183.388,87.767,140,105.288,104.878S149.331,0,181.659,0Z" fill="url(#linear-gradient)"/>
      <path id="패스_50" data-name="패스 50" d="M-3148.592,3794.152c14.706,33.087,36.058,123.093,182.5,36.086-77.686,98.715-148.8,57.048-148.8,57.048S-3165.271,3863.408-3148.592,3794.152Z" transform="translate(3152.069 -3641.512)" fill="#505bff"/>
      <path id="패스_51" data-name="패스 51" d="M-3068.271,3863.236s24.156,41.782,22.686,62.563c26.85-76.067,5.885-144.713,5.885-144.713s50.868,96.2-21.165,191.622C-3049.118,3890.021-3068.271,3863.236-3068.271,3863.236Z" transform="translate(3385.582 -3677.896)" fill="#505bff"/>
    </g>
  </g>
</svg>
